HIERARCHY
ROOT Hips
{
	OFFSET -14.64140 90.27770 -84.91600
	CHANNELS 6 Xposition Yposition Zposition Zrotation Xrotation Yrotation
	JOINT Spine
	{
		OFFSET 0.00000 13.20850 -1.60436
		CHANNELS 3 Zrotation Xrotation Yrotation
		JOINT Spine1
		{
			OFFSET 0.00000 8.61716 0.00000
			CHANNELS 3 Zrotation Xrotation Yrotation
			JOINT Spine2
			{
				OFFSET 0.00000 8.61717 0.00000
				CHANNELS 3 Zrotation Xrotation Yrotation
				JOINT Spine3
				{
					OFFSET 0.00000 8.61717 0.00000
					CHANNELS 3 Zrotation Xrotation Yrotation
					JOINT Neck
					{
						OFFSET 0.00000 11.07920 1.10792
						CHANNELS 3 Zrotation Xrotation Yrotation
						JOINT Neck1
						{
							OFFSET 0.00000 7.08032 0.00000
							CHANNELS 3 Zrotation Xrotation Yrotation
							JOINT Head
							{
								OFFSET 0.00000 7.08031 0.00000
								CHANNELS 3 Zrotation Xrotation Yrotation
								End site
								{
									OFFSET 0.00000 0.00000 0.00000
								}
							}
						}
					}
					JOINT RightShoulder
					{
						OFFSET -0.01000 7.91373 5.19711
						CHANNELS 3 Zrotation Xrotation Yrotation
						JOINT RightArm
						{
							OFFSET -18.41580 0.00000 0.00000
							CHANNELS 3 Zrotation Xrotation Yrotation
							JOINT RightForeArm
							{
								OFFSET -29.11090 0.00000 0.00000
								CHANNELS 3 Zrotation Xrotation Yrotation
								JOINT RightHand
								{
									OFFSET -24.65040 0.00000 0.00000
									CHANNELS 3 Zrotation Xrotation Yrotation
									JOINT RightHandThumb1
									{
										OFFSET -5.35114 -0.85590 3.97906
										CHANNELS 3 Zrotation Xrotation Yrotation
										JOINT RightHandThumb2
										{
											OFFSET -4.52789 0.00000 0.00000
											CHANNELS 3 Zrotation Xrotation Yrotation
											JOINT RightHandThumb3
											{
												OFFSET -2.46976 0.00000 0.00000
												CHANNELS 3 Zrotation Xrotation Yrotation
												End site
												{
													OFFSET 0.00000 0.00000 0.00000
												}
											}
										}
									}
									JOINT RightHandIndex1
									{
										OFFSET -14.26970 0.00000 2.88139
										CHANNELS 3 Zrotation Xrotation Yrotation
										JOINT RightHandIndex2
										{
											OFFSET -5.48836 0.00000 0.00000
											CHANNELS 3 Zrotation Xrotation Yrotation
											JOINT RightHandIndex3
											{
												OFFSET -3.01859 0.00000 0.00000
												CHANNELS 3 Zrotation Xrotation Yrotation
												End site
												{
													OFFSET 0.00000 0.00000 0.00000
												}
											}
										}
									}
									JOINT RightHandMiddle1
									{
										OFFSET -14.26970 0.00000 -0.09147
										CHANNELS 3 Zrotation Xrotation Yrotation
										JOINT RightHandMiddle2
										{
											OFFSET -6.17441 0.00000 0.00000
											CHANNELS 3 Zrotation Xrotation Yrotation
											JOINT RightHandMiddle3
											{
												OFFSET -3.56743 0.00000 0.00000
												CHANNELS 3 Zrotation Xrotation Yrotation
												End site
												{
													OFFSET 0.00000 0.00000 0.00000
												}
											}
										}
									}
									JOINT RightHandRing1
									{
										OFFSET -12.69180 0.00000 -3.06433
										CHANNELS 3 Zrotation Xrotation Yrotation
										JOINT RightHandRing2
										{
											OFFSET -5.62556 0.00000 0.00000
											CHANNELS 3 Zrotation Xrotation Yrotation
											JOINT RightHandRing3
											{
												OFFSET -3.56744 0.00000 0.00000
												CHANNELS 3 Zrotation Xrotation Yrotation
												End site
												{
													OFFSET 0.00000 0.00000 0.00000
												}
											}
										}
									}
									JOINT RightHandPinky1
									{
										OFFSET -11.11390 0.00000 -6.03719
										CHANNELS 3 Zrotation Xrotation Yrotation
										JOINT RightHandPinky2
										{
											OFFSET -4.52789 0.00000 0.00000
											CHANNELS 3 Zrotation Xrotation Yrotation
											JOINT RightHandPinky3
											{
												OFFSET -2.46976 0.00000 0.00000
												CHANNELS 3 Zrotation Xrotation Yrotation
												End site
												{
													OFFSET 0.00000 0.00000 0.00000
												}
											}
										}
									}
								}
							}
						}
					}
					JOINT LeftShoulder
					{
						OFFSET 0.01000 7.91373 5.19711
						CHANNELS 3 Zrotation Xrotation Yrotation
						JOINT LeftArm
						{
							OFFSET 18.41580 0.00000 0.00000
							CHANNELS 3 Zrotation Xrotation Yrotation
							JOINT LeftForeArm
							{
								OFFSET 29.11090 0.00000 0.00000
								CHANNELS 3 Zrotation Xrotation Yrotation
								JOINT LeftHand
								{
									OFFSET 24.65040 0.00000 0.00000
									CHANNELS 3 Zrotation Xrotation Yrotation
									JOINT LeftHandThumb1
									{
										OFFSET 5.35114 -0.85590 3.97906
										CHANNELS 3 Zrotation Xrotation Yrotation
										JOINT LeftHandThumb2
										{
											OFFSET 4.52789 0.00000 0.00000
											CHANNELS 3 Zrotation Xrotation Yrotation
											JOINT LeftHandThumb3
											{
												OFFSET 2.46977 0.00000 0.00000
												CHANNELS 3 Zrotation Xrotation Yrotation
												End site
												{
													OFFSET 0.00000 0.00000 0.00000
												}
											}
										}
									}
									JOINT LeftHandIndex1
									{
										OFFSET 14.26970 0.00000 2.88139
										CHANNELS 3 Zrotation Xrotation Yrotation
										JOINT LeftHandIndex2
										{
											OFFSET 5.48836 0.00000 0.00000
											CHANNELS 3 Zrotation Xrotation Yrotation
											JOINT LeftHandIndex3
											{
												OFFSET 3.01859 0.00000 0.00000
												CHANNELS 3 Zrotation Xrotation Yrotation
												End site
												{
													OFFSET 0.00000 0.00000 0.00000
												}
											}
										}
									}
									JOINT LeftHandMiddle1
									{
										OFFSET 14.26970 0.00000 -0.09147
										CHANNELS 3 Zrotation Xrotation Yrotation
										JOINT LeftHandMiddle2
										{
											OFFSET 6.17440 0.00000 0.00000
											CHANNELS 3 Zrotation Xrotation Yrotation
											JOINT LeftHandMiddle3
											{
												OFFSET 3.56744 0.00000 0.00000
												CHANNELS 3 Zrotation Xrotation Yrotation
												End site
												{
													OFFSET 0.00000 0.00000 0.00000
												}
											}
										}
									}
									JOINT LeftHandRing1
									{
										OFFSET 12.69180 0.00000 -3.06433
										CHANNELS 3 Zrotation Xrotation Yrotation
										JOINT LeftHandRing2
										{
											OFFSET 5.62556 0.00000 0.00000
											CHANNELS 3 Zrotation Xrotation Yrotation
											JOINT LeftHandRing3
											{
												OFFSET 3.56744 0.00000 0.00000
												CHANNELS 3 Zrotation Xrotation Yrotation
												End site
												{
													OFFSET 0.00000 0.00000 0.00000
												}
											}
										}
									}
									JOINT LeftHandPinky1
									{
										OFFSET 11.11390 0.00000 -6.03719
										CHANNELS 3 Zrotation Xrotation Yrotation
										JOINT LeftHandPinky2
										{
											OFFSET 4.52789 0.00000 0.00000
											CHANNELS 3 Zrotation Xrotation Yrotation
											JOINT LeftHandPinky3
											{
												OFFSET 2.46976 0.00000 0.00000
												CHANNELS 3 Zrotation Xrotation Yrotation
												End site
												{
													OFFSET 0.00000 0.00000 0.00000
												}
											}
										}
									}
								}
							}
						}
					}
					JOINT pCube4
					{
						OFFSET 0.00000 10.91090 1.10792
						CHANNELS 3 Zrotation Xrotation Yrotation
						End site
						{
							OFFSET 0.00000 0.00000 0.00000
						}
					}
				}
			}
		}
	}
	JOINT RightUpLeg
	{
		OFFSET -9.98441 0.00000 0.00000
		CHANNELS 3 Zrotation Xrotation Yrotation
		JOINT RightLeg
		{
			OFFSET 0.00000 -42.11790 0.00000
			CHANNELS 3 Zrotation Xrotation Yrotation
			JOINT RightFoot
			{
				OFFSET 0.00000 -45.00020 -0.00001
				CHANNELS 3 Zrotation Xrotation Yrotation
				JOINT RightForeFoot
				{
					OFFSET 0.00000 -3.74820 0.00000
					CHANNELS 3 Zrotation Xrotation Yrotation
					JOINT RightToeBase
					{
						OFFSET 0.00000 0.06325 14.43120
						CHANNELS 3 Zrotation Xrotation Yrotation
						End site
						{
							OFFSET 0.00000 0.00000 0.00000
						}
					}
				}
			}
		}
	}
	JOINT LeftUpLeg
	{
		OFFSET 9.98441 0.00000 0.00000
		CHANNELS 3 Zrotation Xrotation Yrotation
		JOINT LeftLeg
		{
			OFFSET 0.00000 -42.11800 0.00000
			CHANNELS 3 Zrotation Xrotation Yrotation
			JOINT LeftFoot
			{
				OFFSET 0.00000 -45.00070 0.00000
				CHANNELS 3 Zrotation Xrotation Yrotation
				JOINT LeftForeFoot
				{
					OFFSET 0.00000 -3.74824 0.00000
					CHANNELS 3 Zrotation Xrotation Yrotation
					JOINT LeftToeBase
					{
						OFFSET 0.00000 0.06325 14.43110
						CHANNELS 3 Zrotation Xrotation Yrotation
						End site
						{
							OFFSET 0.00000 0.00000 0.00000
						}
					}
				}
			}
		}
	}
}
MOTION
Frames: 4
Frame Time: 0.050000
-0.005585847167097742 0.013949175076009027 0.03102581660998603 0.04652089898179105 0.015138902420411108 0.02538685693214672 -2.9517887326381897 0.5288508207366948 -0.6841808484464312 -0.9560520120109509 3.741226032152841 0.39470038007545954 -1.4232010779673583 -2.1100599815559558 0.09713215657624567 0.019396985653763292 0.30829738376374705 -0.6626248910405131 0.7781612973818403 14.11117040935416 -1.55728654204258 0.197830354579148 0.3744653178640438 -6.366308516907079 0.9264708687224165 -14.570427919861846 -0.5406790672190619 -7.481290281603935 2.4679162391125646 -13.228416014763395 75.1435074359575 10.57367366923903 31.620304444447616 26.812149269238585 5.650328276758864 76.86603538590687 18.097787860331174 -0.37934948943487057 -1.507436016902633 4.556433353250905 -0.14178807009475344 -1.5574725020203217 0.03498440057185981 -0.04533280340676299 -56.21966404306427 -0.03808834164632401 0.03955497610495912 -56.23206495057052 -38.80335632694365 0.049568749708237686 0.02742722796594208 0.011283449064401981 0.04954502864815624 -0.007838347518631873 -0.002446974373395117 0.009520805737570245 -0.00809502307230838 -36.65809458424496 -0.04953072251783699 -0.030548786076082614 0.0027864318106353586 -0.017456185246160504 -0.04274245476328577 0.0027590203723886473 0.003513187784750668 -0.021260962274672217 -19.750124804388705 0.034778735149424776 0.046371047566409584 -0.022607097488796385 -0.027633729160533086 0.0011700919102056754 -0.006529058623763193 0.010339521808588381 0.0473749103272631 24.064213367029733 0.006228779559529907 -0.011628192970588815 28.847343276719076 0.03520382195640435 0.02462960093403817 28.831039857205795 0.030544139343817535 -0.01611664869752936 5.882970661323606 1.382423844226554 12.033826508542845 -67.81689820024994 24.78700859831007 -12.638415531173806 -15.163314285263297 -1.1443143350232805 -69.69001528788252 -8.879964307402032 3.864402096575979 -1.7486020025944962 -0.5119300295695457 0.09611911881458976 -8.129307576209944 -0.011229465132972148 -0.011907995908166711 44.60263761511941 -0.02744744264093178 -0.011823825654744456 44.59314975711487 12.493115645809212 -0.0178928028179286 0.04963258587117523 -0.006318485844630785 -0.0015621818622181373 0.028233345948523857 -0.008212084657646869 -0.023743342055175268 -0.006951997949977469 11.100957859473404 -0.017231857825845836 -0.03684486396867974 0.0159456407480768 0.013406058528846462 -0.03735063779688353 -0.0017230610104821704 0.019908106230641973 0.01899827584316831 4.768696059072659 -0.00611272628225724 0.03943640119312735 -0.04165684540504804 0.008385037968242148 0.006593470806127243 -0.034449673072159064 0.03164720181693159 -0.01019406757605059 -5.560237948071239 0.014481667448630189 -0.025848163182501577 -6.723824863026093 -0.014019105164990312 -0.04085818911746415 -6.672200308342321 -0.0009743704161870865 -0.002763442012342888 -0.04103724340330908 -0.036631489421586734 0.01583785503760549 8.068847147233056 3.5199381096802678 -19.213513487701086 -0.008160582518683087 10.346863107643559 -0.019615198936612264 -5.579866782346505 -15.661512048054838 3.1864438621402424 0.006231754616621306 -0.015608312019706947 -0.035332952680328496 -0.03807618416385187 4.709877672872549 -0.025786457074030884 12.501007470527464 -8.194679484668443 6.875495724048396 -0.043574722371163506 46.3980428446276 0.04155680045680592 -4.306936839475531 -14.716589599063678 -3.823169028522239 -0.002527174349111661 -0.028440434930563665 0.02904744287761573 0.008001464382806201 -10.792378906190272 0.027019924329570667 
0.02451988952074765 -0.012115466013969683 0.02208549907096099 0.004712552656460467 0.02614315529630559 -0.007159395152976345 -2.892060569444934 0.4832969807339492 -0.7146074196530094 -0.9445456876655449 3.703375632772248 0.3528451649432356 -1.406199939036273 -2.191906758710056 -0.020365139007375063 0.07378613923896377 0.26742902426623144 -0.7096701605252379 0.8229893062065571 14.086768359567186 -1.7821889226186842 0.23475993951949298 0.37735857470279427 -6.953012692537499 0.9177721472509555 -14.506046472406185 -0.5245414581123726 -7.406431756888445 2.363554313092314 -13.186822426857672 74.55134442453436 9.249487041695852 31.307836120556846 32.23102349542588 5.817248476289527 78.7244265259539 19.047916528121217 -0.303522118920612 -1.796996907530771 4.507976739660998 -0.14386759068519922 -1.6261712317349466 -0.01878119375657248 -0.03699158470912718 -56.25188909590309 -0.028780184490290746 0.01079355945857942 -56.18897688024053 -38.801935439004616 0.029244444258722652 -0.021354330200267186 -0.019867359038572032 0.01834448570868425 -0.02900127318352444 -0.0006503010993564664 -0.017453615184448417 -0.02830826260832041 -36.73370983120632 0.00465653769516905 -0.007426325453081137 -0.04724961821745443 0.012460319671277975 -0.01781387801896497 0.018910810884122636 -0.007503248225057497 -0.006771391964422528 -19.745632715390343 -0.031180873763811037 0.03892605323360798 0.04772424541227073 -0.014167687469725439 0.024609559759862506 -0.040018543573449326 0.009272437061090764 -0.012190855112536331 24.077967318877032 -0.0002500239205045338 0.02251739720693731 28.88138292301001 -0.0392302679763232 0.04557489586987194 28.835395272098697 0.02338891233831854 0.024614233222571835 6.118486376469456 1.438014400791543 12.042769376374922 -67.44324616846947 23.032561530939628 -13.864623864550484 -20.87095090392106 2.402135081487262 -74.25143724208296 -9.328132902240794 3.961693073038846 -2.0009312291955164 -0.4821459002732667 0.04413556371689309 -8.111789446141621 0.03418617815439869 -0.03316938081815668 44.565997874763575 0.03790939499617176 0.021486044848655482 44.53948599877806 12.48720522301019 0.026844691497058114 0.00020665126132387698 -0.030262650858114346 0.005566059192092738 0.003930822682856634 -0.03152257095331492 -0.026748721300708923 0.03396059581032396 11.115116761680717 -0.027366157451153915 -0.025618511407781847 -0.04076538886237089 -0.0006516376621469277 0.04318935761393695 -0.024127479872960256 -0.010260172573248494 -0.018444623659983467 4.794219128629952 -0.04733514594925412 0.049137060244248305 -0.020704713608500104 -0.008041690577897062 0.0034781970590400104 -0.03911092475134676 0.0315611892271964 -0.02702265315759862 -5.599284041719588 -0.0020551536522290213 0.03953835692763211 -6.749169254214397 -0.010114851560228557 -0.026604977240415894 -6.744398741019737 0.014570842576094306 -0.017255488393210814 0.018473592735867763 -0.013718020653799947 -0.012668421700693346 8.027258085753992 3.494742668673495 -19.201638972479643 -0.0023497399604379497 10.368043279641036 0.024012553006287435 -5.6590632291239915 -15.662999240702122 3.1936798860014752 -0.02766979211720132 0.044924226928173404 -0.030518983211058306 -0.03525456323693838 4.647576065450271 -0.017149979189985076 12.450503213758664 -8.263406307279103 6.8427797447943375 0.02855040057184886 46.39726525625156 -0.012730089819790581 -4.2813802861229595 -14.735839772094103 -3.795631244998382 0.024288810171193363 0.03780752126772699 0.03327937473941202 -0.008110250410193342 -10.774075425486108 -0.03489734282504981 
-0.017375587580972948 0.019810762496561288 0.021748234696031106 0.02997881092984399 0.007389526845661633 -0.04908696768294221 -2.807004528389927 0.2740089227570194 -0.735648543445902 -0.9027116230170283 3.7679198977024955 0.4282557359022102 -1.3550683295068382 -2.2627547358404505 -0.13042566378508672 0.16016746197552376 0.18762471946282902 -0.7041025036810268 0.7439213075599577 14.160379245057833 -2.045080029355204 0.20793984008119 0.4280473174994409 -7.266860739755064 0.9419522132569434 -14.426769673275063 -0.6215781731221034 -7.514745558741961 2.432499592325492 -13.248862621932428 73.95077942523662 6.746584388200352 31.685098635377287 39.300181162447174 5.514887936079324 82.71039665189643 19.809680453102693 -0.32335380819432696 -1.9933260748553203 4.505558761185774 -0.13444969250125263 -1.6069551923245842 0.0008745641951037549 0.012604809148269681 -56.25099572687056 -0.011848055410018269 -0.022773103381756307 -56.22326288367685 -38.817024924776575 0.039863841361779125 -0.04073276089329884 -0.002993945150801187 0.0016496736794485948 -0.03855702193284435 -0.030654190597434343 0.016017145647538037 -0.006719431260227733 -36.71280315963932 0.04846202984490233 -0.0025348013541055003 -0.03679129094115951 -0.007508277395612748 0.03035717752492508 -0.007472664832633582 0.029191647326431404 0.010845285797907936 -19.73722569071977 -0.021444575788605785 0.031634335257743944 0.0005968098237437308 0.01017336816943498 -0.04259160848056366 -0.008110295959334641 0.0002857534879959218 -0.0234234556569682 24.08004942435612 0.00022876462494040263 0.00678105447197638 28.88044575080701 0.03173014096492521 -0.010543514446860596 28.902151995425232 -0.03528681558234564 0.025806318950622558 6.502927926614411 1.5508728115607984 11.935136301296506 -67.17901262089416 21.181801277815996 -15.323424550022626 -29.080475751551262 6.11578272251694 -81.08353589504152 -9.986738075174644 3.9109711747179072 -2.3340336588333317 -0.5229208343917721 0.09034386392534316 -8.118715958056935 0.011806383125070487 0.02590853994850439 44.58778569845905 0.02622440722696334 -0.04694466659551443 44.54296703958137 12.425099284987134 -0.01484269338315547 -0.0033748013624889895 -0.015497776312031813 -0.02887040677597539 0.04012232187103239 -0.002497214958497648 -0.023430118100564567 -0.011665799501341997 11.081310833340718 -0.016299105971761537 0.028209061950934654 -0.0038920165039111106 -0.01625160455670216 -0.024457613935108966 0.029562461593138686 -0.0450918064441538 -0.04748628542767139 4.735064452030118 0.03505030728981575 0.04557755154948057 0.012276589896612494 0.015335937352605434 -0.024920328565434805 0.049636394995933725 0.030389791739356884 0.02569791354120704 -5.649697793165819 0.032736091158570325 -0.00550848018395318 -6.706127295018572 -0.022419185890131497 0.01417788067975682 -6.749335669045447 -0.03303299712297217 -0.02708889297494325 0.019679197571061412 0.03748838518464353 0.0009934825943659759 8.057059103878238 3.501576776181076 -19.245754748122458 -0.04563861970666829 10.356837543369089 0.02076847035951253 -5.614822773258595 -15.630968494916587 3.1650803115734707 0.012769021810247581 -0.017603145465245353 -0.03902771585554762 -0.0443235326097761 4.655568459682739 -0.03710035594159346 12.447655948750976 -8.286425180612513 6.907399806193682 -0.024100653712678763 46.379472739500024 0.050205315378939463 -4.3495708974288805 -14.75565776359301 -3.829683799116837 0.016228260457858204 0.039855521553687684 -0.017184318280741413 0.01119908823672758 -10.771755193900946 -0.0356532153162858 
-0.020530758370189348 0.008476419896016529 -0.0021647859378857923 0.028755079879895513 0.004665207249949298 0.021946583644869573 -2.7044058248122664 0.067612421366957 -0.7451241930306575 -0.8730190923351336 3.7186905648621384 0.36811328654181513 -1.330574203643085 -2.332459404031503 -0.21990118523233415 0.13499229908322058 0.09893361694704204 -0.7179839742674491 0.8310224780599949 14.17608997402746 -2.127550946050074 0.24459477300011034 0.4769775748199606 -7.3935606780818794 1.0219965702970082 -14.375390777583432 -0.622587679951824 -7.783345195618212 2.462435854900822 -13.292428676618972 73.10298883008322 3.3157648987959436 32.43111547934384 46.46778071060626 4.302534264916324 87.38832914252328 20.29372874548218 -0.32982369003467543 -2.106627802113186 4.539820926175808 -0.07985856517788362 -1.6233025673141572 -0.009369651190891407 -0.007518457436528115 -56.26653879495489 0.02127173314516407 0.0362397171623349 -56.24142796497481 -38.75177963140063 -0.021847627793306394 0.021376269508199534 0.02969879324821531 -0.03952816799130786 0.0033764247471197643 -0.016497644098035905 -0.011920980040501362 -0.013472597456776883 -36.6906430442705 -0.01874598895031151 0.027073518928755886 0.032362336487190856 0.003234973836336013 0.009695607776733714 0.019875743275592054 0.013942446166732125 0.009105768002510584 -19.800049076699686 -0.04573675988814543 -0.022988863872267246 -0.03397320856561393 -0.02079073747165286 -0.01751095583721677 0.007873831123203348 0.012473252063196645 0.02137173603641019 24.08525166464853 0.003457204820821706 -0.03799197130438355 28.883587360429104 -0.03442285599249424 -0.015430949715028544 28.872411226317155 0.013319322970374222 -0.032911996079648086 6.762789504703846 1.556020148677253 11.928908590504854 -67.02050009829694 19.661405389945386 -16.43084022475771 -37.836798740992336 8.448527661902045 -88.58867183239072 -10.518746147267224 3.864422094024488 -2.625893529530117 -0.4706630346235689 0.04493198085132119 -8.156996196857229 0.00569384353162891 -0.009967638132366464 44.52666260069739 -0.012654965363296048 -0.021819788643398917 44.545683032114525 12.474251251379238 -0.018179446059483392 -0.002357786879319746 0.026142115278942002 0.026278809282912107 0.043470590186212445 0.04157318379383811 -0.017310843386132754 0.04004758245201704 11.119027947799516 -0.04010792811131621 0.0045081140865293945 0.0108126633685558 -0.0392948973049602 -0.02984586480592033 0.02274124254770065 -0.006619936910595272 -0.015290131926908238 4.775507379727415 -0.01793164424450317 0.028779155042034266 0.011667712980906825 -0.00270939428732362 -0.0018281462583964497 0.012002094067198847 0.021886023026666014 0.005710635155305335 -5.608747886249522 0.004663235716486663 -0.012453102530006558 -6.672388362355992 -0.04796837576032211 0.041833167149696204 -6.6797582250970695 0.03295198026193658 -0.021769798980442692 -0.043772779366516065 0.022719149449512706 -0.0027266244495604197 8.077013827965333 3.473700813974468 -19.240503503576356 0.047670518554242765 10.422217291605294 0.03251513889451823 -5.632898109622007 -15.701020453461693 3.1564002432364333 -0.035489491651333485 -0.02177490148366878 0.03779058824689723 0.010095563852432052 4.730003909354792 -0.0005811384602717613 12.470457603983057 -8.206276965198864 6.863716411602964 0.022083141745585316 46.39388505183567 0.05134555301972404 -4.361984976439978 -14.736137117340979 -3.790679859630453 -0.025721221034439436 -0.02360876710489561 0.029448568297191037 0.009097959897435988 -10.769450325606618 -0.048676682186741316 
